<?xml version="1.0" standalone="no"?><!DOCTYPE svg PUBLIC "-//W3C//DTD SVG 1.1//EN" "http://www.w3.org/Graphics/SVG/1.1/DTD/svg11.dtd"><svg t="1769089601799" class="icon" viewBox="0 0 1024 1024" version="1.1" xmlns="http://www.w3.org/2000/svg" p-id="1628" xmlns:xlink="http://www.w3.org/1999/xlink" width="200" height="200"><path d="M504.461617 504.461617m-460.887149 0a460.887149 460.887149 0 1 0 921.774298 0 460.887149 460.887149 0 1 0-921.774298 0Z" fill="#0A6EFA" p-id="1629"></path><path d="M511.978213 195.867234c126.34417 0 228.765957 107.28034 228.765957 239.659575 0 120.701277-85.209872 220.595745-196.085106 237.219404v45.992851h119.829787a10.893617 10.893617 0 0 1 10.893617 10.893617v43.574468a10.893617 10.893617 0 0 1-10.893617 10.893617h-305.021277a10.893617 10.893617 0 0 1-10.893617-10.893617v-43.574468a10.893617 10.893617 0 0 1 10.893617-10.893617h119.829788v-45.992851c-110.875234-16.62366-196.085106-116.49634-196.085107-237.241192 0-132.357447 102.4-239.659574 228.765958-239.659574z m32.680851 71.897872v26.144681a10.893617 10.893617 0 0 1-10.893617 10.893617h-43.574468a10.893617 10.893617 0 0 1-10.893617-10.893617v-26.144681c-74.599489 15.839319-130.723404 84.926638-130.723405 167.761703 0 94.534809 73.161532 171.160511 163.404256 171.16051 90.242723 0 163.404255-76.625702 163.404255-171.182298 0-82.791489-56.123915-151.878809-130.723404-167.761702z m-32.680851 80.612766a98.042553 98.042553 0 1 1 0 196.085107 98.042553 98.042553 0 0 1 0-196.085107z m0 65.361702a32.680851 32.680851 0 1 0 0 65.361703 32.680851 32.680851 0 0 0 0-65.361703z" fill="#FFFFFF" p-id="1630"></path></svg>